<svg id="Layer_1" height="512" viewBox="0 0 512 512" width="512" xmlns="http://www.w3.org/2000/svg" data-name="Layer 1"><path d="m193.14 344 27.805-28.409 21.574-128.287-19.979-18.124z" fill="#d4e1f4"/><path d="m493.6 162h-270.863a6 6 0 0 0 -5.917 5.007l-29.597 175.993a6 6 0 0 0 5.917 7h270.86a6 6 0 0 0 5.917-5.007l29.598-175.993a6 6 0 0 0 -5.917-7zm-134.05 97.8a23.714 23.714 0 0 1 -29.927-1.586l-92.823-84.214h240.179zm-132.912-78.81 62.317 56.532-42.524 43.447a6 6 0 0 0 .045 8.44 6 6 0 0 0 8.531-.046l42.842-43.772 23.709 21.509a35.717 35.717 0 0 0 45.068 2.386l27.959-20.423 58.307 88.937h-245.484l19.618-20.047a6 6 0 0 0 -8.576-8.395l-16.222 16.574zm233.985 146.91-56.336-85.928 80.7-58.959z" fill="#0635c9"/><g fill="#1ae5be"><path d="m166.294 270h-12.3a6 6 0 0 0 0 12h12.3a6 6 0 0 0 0-12z"/><path d="m88.5 277a6 6 0 0 0 6 6h37.67a6 6 0 0 0 0-12h-37.67a6 6 0 0 0 -6 6z"/><path d="m47.229 271h-20.964a6 6 0 1 0 0 12h20.964a6 6 0 0 0 0-12z"/><path d="m62.589 277a6 6 0 0 0 6 6h3.872a6 6 0 1 0 0-12h-3.872a6 6 0 0 0 -6 6z"/><path d="m175.977 229h-56.658a6 6 0 0 0 0 12h56.658a6 6 0 0 0 0-12z"/><path d="m83.3 242h14.2a6 6 0 0 0 0-12h-14.2a6 6 0 1 0 0 12z"/><path d="m38.99 242h21.277a6 6 0 0 0 0-12h-21.277a6 6 0 0 0 0 12z"/><path d="m189.091 188h-20.491a6 6 0 0 0 0 12h20.487a6 6 0 0 0 0-12z"/><path d="m87.3 200h59.48a6 6 0 0 0 0-12h-59.48a6 6 0 1 0 0 12z"/><path d="m51.076 200h14.191a6 6 0 0 0 0-12h-14.191a6 6 0 1 0 0 12z"/><path d="m154 312h-22.567a6 6 0 1 0 0 12h22.567a6 6 0 0 0 0-12z"/><path d="m105.552 312h-42.419a6 6 0 1 0 0 12h42.419a6 6 0 1 0 0-12z"/><path d="m38.1 312h-19.7a6 6 0 0 0 0 12h19.7a6 6 0 1 0 0-12z"/></g></svg>