<?xml version="1.0" encoding="iso-8859-1"?>
<!-- Generator: Adobe Illustrator 19.0.0, SVG Export Plug-In . SVG Version: 6.00 Build 0)  -->
<svg version="1.1" id="Capa_1" xmlns="http://www.w3.org/2000/svg" xmlns:xlink="http://www.w3.org/1999/xlink" x="0px" y="0px"
	 viewBox="0 0 512 512" style="enable-background:new 0 0 512 512;" xml:space="preserve">
<circle style="fill:#FFDA00;" cx="256" cy="256" r="256"/>
<path style="fill:#FFB600;" d="M301.007,508.053C420.929,486.783,512,382.029,512,256c0-3.547-0.092-7.072-0.235-10.583
	l-94.39-94.39l-353,85.792L189.736,362.18l-9.642,24.96L301.007,508.053z"/>
<polygon style="fill:#3A3ABA;" points="180.094,387.139 182.782,384.702 265.421,283.109 183.6,299.474 "/>
<polygon style="fill:#5A54E0;" points="417.375,151.026 64.375,236.818 334.157,381.571 "/>
<polygon style="fill:#4545CE;" points="417.375,151.026 64.375,236.818 334.157,381.571 "/>
<polygon style="fill:#5858E0;" points="176.443,296.948 417.375,151.026 64.375,236.818 "/>
<polygon style="fill:#6666ED;" points="417.375,151.026 150.65,283.109 180.094,387.139 201.182,310.222 "/>
<polygon style="fill:#5858E0;" points="417.375,151.026 150.65,283.109 180.094,387.139 201.182,310.222 "/>
<polygon style="fill:#6666ED;" points="150.65,283.109 180.094,298.907 417.375,151.026 "/>
<polygon style="fill:#4545CE;" points="180.094,298.907 180.094,387.139 201.182,310.222 "/>
<g>
</g>
<g>
</g>
<g>
</g>
<g>
</g>
<g>
</g>
<g>
</g>
<g>
</g>
<g>
</g>
<g>
</g>
<g>
</g>
<g>
</g>
<g>
</g>
<g>
</g>
<g>
</g>
<g>
</g>
</svg>
